<?xml version="1.0" standalone="no"?>
<!DOCTYPE svg PUBLIC "-//W3C//DTD SVG 20010904//EN"
 "http://www.w3.org/TR/2001/REC-SVG-20010904/DTD/svg10.dtd">
<svg version="1.0" xmlns="http://www.w3.org/2000/svg"
 width="1427.000000pt" height="1005.000000pt" viewBox="0 0 1427.000000 1005.000000"
 preserveAspectRatio="xMidYMid meet">

<g transform="translate(0.000000,1005.000000) scale(0.100000,-0.100000)"
fill="#000000" stroke="none">
<path d="M9373 7470 c-99 -60 -182 -407 -214 -890 -13 -207 -6 -1129 11 -1378
8 -126 8 -146 -7 -178 -15 -30 -21 -35 -43 -30 -14 3 -56 9 -95 12 -61 4 -75
2 -110 -18 -48 -28 -65 -58 -65 -119 0 -62 31 -92 98 -93 77 -1 140 22 191 71
58 56 62 51 85 -104 10 -65 49 -284 88 -488 130 -692 138 -746 132 -864 -12
-215 -74 -618 -120 -778 -23 -80 -58 -147 -90 -172 -23 -18 -36 -20 -78 -15
-28 3 -71 16 -96 27 -123 59 -271 349 -419 822 -80 258 -141 741 -141 1127 l0
206 38 19 c56 29 76 80 112 293 32 192 38 259 70 825 23 396 28 1086 8 1141
-18 51 -68 67 -117 38 -138 -82 -181 -476 -181 -1686 0 -300 -4 -538 -9 -538
-5 0 -37 22 -71 50 -66 52 -85 59 -114 37 -14 -11 -21 -40 -33 -138 -13 -121
-35 -189 -61 -197 -23 -7 -89 154 -103 251 -14 96 -30 118 -69 97 -18 -10 -20
-21 -20 -124 0 -82 -9 -170 -35 -322 -40 -243 -46 -265 -79 -308 -38 -51 -129
-69 -221 -46 -40 11 -115 40 -115 46 0 1 14 57 30 123 60 240 100 465 99 558
0 85 -23 201 -46 231 -31 43 -88 65 -179 70 -172 9 -198 -39 -208 -383 -7
-271 2 -356 49 -436 45 -77 96 -144 130 -171 20 -16 25 -26 20 -45 -8 -31
-132 -282 -154 -312 -17 -23 -18 -23 -50 56 -105 253 -210 363 -344 363 -87 0
-108 -26 -139 -165 l-13 -60 -3 42 c-2 23 10 117 27 210 63 355 96 708 112
1193 12 370 6 775 -15 902 -10 63 -19 84 -48 120 -73 89 -185 113 -236 51 -55
-68 -66 -199 -66 -758 0 -618 8 -730 100 -1315 25 -157 45 -303 46 -325 1 -79
-73 -379 -148 -603 -62 -186 -83 -236 -130 -308 -55 -85 -62 -115 -29 -128 27
-10 42 4 100 91 49 74 67 116 130 302 40 119 81 253 91 299 9 45 20 82 24 82
10 0 30 -187 30 -279 0 -61 5 -96 18 -125 11 -23 38 -147 61 -276 23 -129 66
-345 97 -480 30 -135 68 -308 84 -385 63 -311 118 -475 225 -683 63 -123 68
-129 115 -164 46 -33 77 -40 110 -23 37 19 50 54 67 185 12 94 14 212 10 650
-4 528 -4 537 -31 684 -37 206 -86 416 -136 579 l-41 138 45 79 c26 44 75 138
110 208 57 116 65 128 82 119 35 -19 158 -47 210 -47 108 0 209 73 239 173 7
23 25 116 39 207 34 207 32 202 57 159 54 -90 99 -107 157 -61 45 36 71 106
79 218 3 41 9 77 13 79 4 3 24 -8 44 -24 21 -17 50 -32 65 -36 27 -6 29 -10
35 -73 3 -37 6 -142 6 -233 0 -206 30 -528 70 -764 74 -428 264 -916 427
-1096 53 -59 111 -89 192 -100 141 -20 203 28 262 199 24 68 84 375 100 507 6
55 15 106 19 113 3 7 26 -80 49 -195 95 -465 153 -636 237 -702 34 -27 46 -26
81 3 61 52 77 187 77 671 0 406 -8 492 -75 810 -43 199 -247 843 -365 1149 -6
17 -4 18 17 12 61 -19 100 -26 182 -37 179 -22 332 30 397 136 l22 35 102 0
c119 0 175 15 227 63 82 75 159 221 219 415 53 172 115 593 129 882 5 97 13
175 20 189 l13 23 37 -36 c73 -72 157 -259 223 -495 68 -250 139 -361 231
-361 67 0 137 41 212 123 72 79 86 110 62 135 -23 22 -46 8 -101 -59 -53 -66
-128 -119 -167 -119 -53 0 -108 104 -163 310 -86 316 -221 561 -319 577 -46 7
-78 -12 -101 -62 -14 -29 -20 -81 -27 -229 -23 -522 -127 -980 -264 -1163 -72
-97 -100 -113 -196 -113 -44 0 -79 2 -79 4 0 2 22 51 50 110 27 58 74 180 105
270 67 198 85 317 85 552 0 146 -2 164 -20 187 -45 57 -159 72 -243 32 -74
-35 -147 -163 -200 -350 -41 -145 -59 -433 -37 -603 16 -121 27 -150 79 -202
l48 -48 -18 -28 c-67 -103 -271 -130 -476 -63 -80 26 -105 47 -144 120 -22 41
-40 61 -56 65 -28 7 -28 6 17 114 93 220 243 732 284 973 49 281 68 858 34
1036 -16 83 -47 125 -125 165 -47 24 -158 22 -200 -4z m188 -83 c19 -12 40
-36 48 -52 43 -88 31 -728 -19 -1020 -41 -239 -131 -568 -230 -842 -55 -150
-112 -283 -121 -283 -12 0 -19 283 -19 754 0 494 10 685 55 1000 25 178 91
412 126 447 28 28 116 26 160 -4z m-896 -997 c-3 -179 -12 -428 -20 -555 -8
-126 -19 -324 -25 -440 -17 -323 -76 -695 -111 -695 -15 0 -10 964 6 1329 23
504 59 740 124 815 15 17 16 14 24 -55 4 -41 5 -220 2 -399z m-2003 -58 c75
-49 85 -98 94 -442 12 -449 -20 -1085 -76 -1495 -11 -82 -20 -152 -20 -154 0
-2 -2 -2 -5 0 -4 5 -30 161 -66 399 -11 74 -27 218 -34 320 -17 222 -20 866
-4 1113 16 266 34 310 111 259z m3663 -104 l25 -11 0 -151 c0 -215 -18 -331
-80 -516 -50 -150 -131 -340 -156 -369 -11 -12 -16 -12 -38 3 -36 23 -52 59
-65 149 -24 168 -8 451 35 600 27 93 81 217 111 254 39 48 113 66 168 41z
m-960 -1201 c66 -71 365 -950 436 -1280 67 -314 72 -376 73 -787 0 -403 -14
-600 -43 -600 -10 0 -41 60 -67 130 -29 76 -62 202 -104 400 -17 80 -42 188
-55 240 -71 281 -68 244 -69 820 l-2 525 -36 103 c-56 156 -112 254 -185 322
-74 68 -78 89 -36 174 l26 54 19 -36 c10 -21 29 -49 43 -65z m-1885 -90 c44
-15 59 -56 67 -177 4 -67 0 -116 -21 -230 -32 -171 -83 -396 -95 -417 -7 -13
-16 -6 -49 36 -22 28 -55 77 -74 108 l-33 58 1 255 c1 266 11 351 43 370 22
13 119 11 161 -3z m1588 -13 c13 -4 21 -11 19 -17 -6 -19 -89 -57 -124 -57
-30 0 -33 3 -33 28 0 20 7 32 23 40 25 12 80 15 115 6z m280 -201 c22 -39 54
-114 72 -165 l32 -93 4 -315 c2 -173 2 -310 0 -305 -10 21 -161 840 -172 925
-6 50 -5 54 9 40 9 -8 34 -47 55 -87z m-2429 -722 c21 -11 52 -36 70 -56 34
-39 129 -228 161 -320 l20 -57 -25 -42 c-40 -67 -114 -155 -148 -177 -27 -17
-43 -20 -103 -15 -107 8 -120 15 -128 72 -3 26 -6 120 -6 209 0 159 23 335 51
387 13 24 59 23 108 -1z m321 -661 c38 -128 70 -272 112 -490 l31 -165 5 -530
c4 -557 -6 -765 -38 -765 -64 0 -216 325 -289 617 -91 364 -193 824 -236 1068
-14 83 -28 158 -31 168 -6 17 0 18 83 12 71 -6 96 -4 130 10 43 17 135 107
169 165 10 16 21 26 25 22 4 -4 22 -54 39 -112z"/>
<path d="M8160 6315 c-26 -32 13 -81 48 -59 23 15 26 38 7 58 -20 20 -39 20
-55 1z"/>
<path d="M5915 5610 c-81 -12 -282 -67 -389 -105 -195 -70 -478 -239 -643
-383 -341 -297 -642 -705 -736 -997 -70 -215 -54 -320 75 -517 39 -61 56 -78
74 -78 13 0 28 9 34 21 10 17 4 32 -38 97 -98 151 -117 209 -101 321 27 196
135 399 380 716 76 98 281 307 409 417 137 116 424 277 607 339 175 59 297 87
431 101 187 18 198 7 188 -186 -8 -159 -33 -247 -122 -425 -86 -173 -202 -359
-378 -606 -70 -99 -191 -274 -268 -389 -109 -161 -143 -205 -149 -193 -5 9
-25 98 -45 199 -22 116 -41 187 -50 194 -18 14 -51 7 -58 -12 -7 -19 59 -356
84 -430 14 -40 17 -61 10 -74 -18 -33 -12 -59 15 -66 21 -5 29 -20 55 -108 17
-55 62 -193 100 -306 37 -113 83 -260 101 -328 33 -124 49 -149 83 -136 8 3
18 14 21 23 6 18 -88 358 -125 451 -24 61 -150 466 -150 483 0 13 207 329 280
427 214 286 390 546 468 690 19 36 56 106 83 155 66 124 106 251 120 376 21
193 0 297 -66 327 -29 13 -218 14 -300 2z"/>
</g>
</svg>
