<?xml version="1.0" standalone="no"?>
<!DOCTYPE svg PUBLIC "-//W3C//DTD SVG 20010904//EN"
 "http://www.w3.org/TR/2001/REC-SVG-20010904/DTD/svg10.dtd">
<svg version="1.0" xmlns="http://www.w3.org/2000/svg"
 width="1174.000000pt" height="965.000000pt" viewBox="0 0 1174.000000 965.000000"
 preserveAspectRatio="xMidYMid meet">

<g transform="translate(0.000000,965.000000) scale(0.100000,-0.100000)"
fill="#000000" stroke="none">
<path d="M6347 5235 c-26 -26 -37 -110 -37 -285 l0 -169 -27 -3 c-18 -2 -29
-10 -31 -22 -4 -16 0 -18 31 -13 l35 5 21 -111 c24 -127 25 -165 10 -253 -11
-66 -28 -90 -54 -80 -36 13 -89 143 -105 258 l-9 63 4 -69 c8 -123 66 -257
113 -264 35 -5 50 14 63 80 l12 60 19 -73 c20 -80 32 -99 49 -82 7 7 10 55 7
145 -4 116 -8 145 -36 229 -18 53 -32 99 -32 103 0 3 17 6 39 6 22 0 44 6 51
15 7 8 25 15 40 15 52 0 86 70 98 206 10 111 17 107 72 -43 14 -37 38 -43 63
-15 24 26 21 39 -3 17 -25 -22 -48 -13 -55 22 -9 46 -49 118 -65 118 -9 0 -16
-11 -17 -25 -17 -171 -42 -253 -80 -258 l-22 -3 20 51 c23 62 26 155 4 164
-25 9 -43 -4 -59 -45 -19 -47 -21 -150 -3 -168 10 -10 8 -15 -8 -27 -25 -19
-74 -9 -96 18 -15 19 -15 24 2 68 25 67 49 201 49 280 0 52 -4 71 -18 83 -23
21 -27 21 -45 2z m38 -130 c-1 -106 -4 -130 -30 -205 -36 -103 -39 -92 -32
110 6 161 18 223 45 218 15 -3 17 -19 17 -123z m145 -128 c0 -36 -24 -123 -40
-147 -9 -13 -11 -13 -21 0 -14 21 -4 126 15 155 24 36 46 32 46 -8z m-170
-223 c11 -25 20 -51 20 -57 -1 -7 -7 2 -14 19 -8 18 -19 35 -25 38 -11 7 -16
46 -6 46 3 0 15 -21 25 -46z m-70 12 c0 -3 -4 -8 -10 -11 -5 -3 -10 -1 -10 4
0 6 5 11 10 11 6 0 10 -2 10 -4z m69 -116 l-1 -45 -14 60 c-17 76 -17 86 1 55
8 -14 14 -45 14 -70z m78 -217 c5 -94 0 -144 -13 -130 -3 3 -14 38 -25 79 -13
53 -18 105 -18 188 l1 115 25 -75 c17 -51 27 -107 30 -177z"/>
<path d="M6189 5113 c-6 -16 -14 -108 -16 -206 -6 -167 -7 -177 -24 -172 -15
5 -19 1 -19 -19 0 -37 -19 -42 -26 -7 -10 50 -21 36 -27 -36 -4 -37 -12 -70
-19 -75 -10 -6 -44 -2 -55 6 -1 1 5 28 13 61 17 71 11 111 -18 118 -33 9 -45
-2 -52 -50 -7 -52 0 -91 22 -115 12 -15 13 -22 2 -48 -16 -38 -21 -37 -41 3
-11 23 -24 33 -44 35 -27 3 -27 5 -21 50 3 26 9 115 12 197 6 141 5 152 -14
175 -17 21 -22 22 -36 11 -13 -11 -16 -36 -16 -150 0 -75 6 -173 14 -218 12
-73 11 -88 -5 -153 -11 -40 -24 -79 -30 -86 -6 -7 -9 -19 -6 -26 2 -7 14 10
26 37 40 95 40 93 40 62 2 -53 61 -312 82 -359 24 -52 46 -67 57 -40 15 36 7
265 -11 338 -18 70 -18 71 2 106 18 29 25 34 50 30 32 -4 61 26 61 65 0 18 6
23 25 23 18 0 25 5 25 20 0 11 7 20 15 20 10 0 15 -11 16 -37 2 -33 3 -34 6
-9 3 16 11 39 19 51 17 26 33 181 34 323 0 85 -3 102 -15 102 -9 0 -20 -12
-26 -27z m31 -45 c-1 -114 -19 -301 -30 -312 -10 -8 -11 22 -6 139 7 165 14
215 27 215 5 0 9 -19 9 -42z m-362 -164 c2 -65 0 -148 -4 -184 -5 -56 -8 -61
-16 -40 -13 34 -22 246 -14 304 5 29 12 46 19 43 8 -2 13 -43 15 -123z m150
-171 c2 -17 -2 -51 -8 -75 -11 -40 -13 -41 -26 -23 -14 19 -20 116 -7 129 16
16 38 -1 41 -31z m-112 -141 c6 -4 19 -22 28 -40 16 -31 16 -35 1 -58 -19 -29
-58 -29 -63 0 -5 25 7 106 16 106 4 0 12 -4 18 -8z m73 -186 c13 -71 15 -296
2 -296 -16 0 -49 94 -75 218 -14 67 -26 124 -26 127 0 3 11 5 24 5 13 0 29 7
37 16 17 20 24 7 38 -70z"/>
<path d="M5677 4889 c-63 -15 -138 -59 -192 -113 -61 -60 -115 -149 -115 -188
0 -31 19 -78 32 -78 12 0 10 8 -8 36 -23 35 -7 83 55 165 75 100 192 169 284
169 29 0 30 -1 25 -44 -6 -46 -38 -107 -117 -218 -48 -68 -61 -74 -61 -32 0
13 -4 26 -10 29 -17 10 -12 -18 27 -141 38 -124 40 -130 48 -123 2 3 -7 40
-20 82 -14 43 -25 84 -25 91 0 8 29 54 64 102 96 135 128 212 106 255 -11 20
-33 22 -93 8z"/>
</g>
</svg>
